<svg width="828" height="455" viewBox="0 0 828 455" fill="none" xmlns="http://www.w3.org/2000/svg">
<g clip-path="url(#clip0_152_1675)">
<path d="M124.2 144.773H41.4C30.42 144.773 19.8891 149.131 12.1251 156.888C4.36111 164.645 0 175.166 0 186.136V289.545H41.4V186.136H124.2V144.773Z" fill="black"/>
<path d="M517.501 144.773H476.101V248.182H393.301V289.545H476.101C487.081 289.545 497.61 285.188 505.374 277.43C513.138 269.673 517.501 259.152 517.501 248.182V186.136H600.301V144.773H517.501Z" fill="black"/>
<path d="M331.201 289.546V248.182H227.701V165.455H186.301V248.182C186.301 259.152 190.662 269.673 198.426 277.43C206.19 285.188 216.721 289.546 227.701 289.546H289.801V455H331.201V289.546Z" fill="black"/>
<path d="M662.4 165.455C662.4 176.425 666.762 186.946 674.526 194.703C682.29 202.46 692.82 206.818 703.8 206.818H765.9V289.545H807.3V165.455H703.8V0H662.4V165.455Z" fill="black"/>
<path d="M828 82.7273H786.6V124.091H828V82.7273Z" fill="black"/>
</g>
<defs>
<clipPath id="clip0_152_1675">
<rect width="828" height="455" fill="white"/>
</clipPath>
</defs>
</svg>
